HIERARCHY
ROOT Hips
{
  OFFSET 263.056 91.6644 -274.608
  CHANNELS 6 Xposition Yposition Zposition Zrotation Xrotation Yrotation
  JOINT LeftUpLeg
  {
    OFFSET 8.64259 1.95398 -2.38835
    CHANNELS 3 Zrotation Xrotation Yrotation
    JOINT LeftLeg
    {
      OFFSET 43.7702 0 0
      CHANNELS 3 Zrotation Xrotation Yrotation
      JOINT LeftFoot
      {
        OFFSET 40.6238 0 0
        CHANNELS 3 Zrotation Xrotation Yrotation
        JOINT LeftToeBase
        {
          OFFSET 12.7242 0 0
          CHANNELS 3 Zrotation Xrotation Yrotation
          End Site
          {
            OFFSET 0 0 0
          }
        }
      }
    }
  }
  JOINT RightUpLeg
  {
    OFFSET -8.2249 1.95398 -2.59336
    CHANNELS 3 Zrotation Xrotation Yrotation
    JOINT RightLeg
    {
      OFFSET 43.5653 0 0
      CHANNELS 3 Zrotation Xrotation Yrotation
      JOINT RightFoot
      {
        OFFSET 40.6238 0 0
        CHANNELS 3 Zrotation Xrotation Yrotation
        JOINT RightToeBase
        {
          OFFSET 12.7242 0 0
          CHANNELS 3 Zrotation Xrotation Yrotation
          End Site
          {
            OFFSET 0 0 0
          }
        }
      }
    }
  }
  JOINT Spine
  {
    OFFSET 0.165834 0.87714 6.61349
    CHANNELS 3 Zrotation Xrotation Yrotation
    JOINT Spine1
    {
      OFFSET 7.38963 1.71661e-005 0
      CHANNELS 3 Zrotation Xrotation Yrotation
      JOINT Spine2
      {
        OFFSET 11.9445 1.14441e-005 0
        CHANNELS 3 Zrotation Xrotation Yrotation
        JOINT Spine3
        {
          OFFSET 14.7254 4.19617e-005 0
          CHANNELS 3 Zrotation Xrotation Yrotation
          JOINT Spine4
          {
            OFFSET 10.9679 0 0
            CHANNELS 3 Zrotation Xrotation Yrotation
            JOINT RightShoulder
            {
              OFFSET 2.46616 -1.6653 3.69651
              CHANNELS 3 Zrotation Xrotation Yrotation
              JOINT RightArm
              {
                OFFSET 13.0012 0 0
                CHANNELS 3 Zrotation Xrotation Yrotation
                JOINT RightForeArm
                {
                  OFFSET 28.7848 1.52588e-005 0
                  CHANNELS 3 Zrotation Xrotation Yrotation
                  JOINT RightHand
                  {
                    OFFSET 26.5688 1.52588e-005 0
                    CHANNELS 3 Zrotation Xrotation Yrotation
                    End Site
                    {
                      OFFSET 0 0 0
                    }
                  }
                }
              }
            }
            JOINT LeftShoulder
            {
              OFFSET 2.38034 -1.29275 -3.7523
              CHANNELS 3 Zrotation Xrotation Yrotation
              JOINT LeftArm
              {
                OFFSET 16.3182 6.10352e-005 0
                CHANNELS 3 Zrotation Xrotation Yrotation
                JOINT LeftForeArm
                {
                  OFFSET 27.0901 0 0
                  CHANNELS 3 Zrotation Xrotation Yrotation
                  JOINT LeftHand
                  {
                    OFFSET 24.5451 1.52588e-005 0
                    CHANNELS 3 Zrotation Xrotation Yrotation
                    End Site
                    {
                      OFFSET 0 0 0
                    }
                  }
                }
              }
            }
            JOINT Neck
            {
              OFFSET 5.0226 -0.0266342 0
              CHANNELS 3 Zrotation Xrotation Yrotation
              JOINT Head
              {
                OFFSET 6.69364 2.86102e-005 0
                CHANNELS 3 Zrotation Xrotation Yrotation
                End Site
                {
                  OFFSET 0 0 0
                }
              }
            }
          }
        }
      }
    }
  }
}
MOTION
Frames:	17
Frame Time:	0.0416667
15.0935 90.9688 15.6325 81.6956 -50.214 85.0008 -169.243 21.1471 93.8327 -92.3426 9.23834 0.261972 47.1486 -4.56681 6.08736 38.949 11.6811 4.04815 176.427 31.2284 97.3903 -42.0769 6.50076 4.48626 74.2379 -4.94026 -2.4431 23.895 -1.37355 10.0168 -1.04572 9.58311 -89.7541 7.71264 -1.98067 0.589072 -3.95699 -1.95284 0.675694 -26.5041 -2.06612 -0.0336839 -6.49141 -2.06612 -0.0336786 77.8644 -47.3572 -120.2 26.9357 -10.4952 42.6845 3.82896 2.01108 -104.215 4.52236 0.299811 -2.88386 -104.362 -39.3755 52.7407 0.907068 51.9386 -33.662 22.1138 -15.3395 -93.1317 4.53327 0.204532 0.223138 -0.778286 6.04432 2.1462 20.4635 5.79852 0.779221 
21.2346 90.762 22.6538 78.6964 -49.1223 83.9299 -168.974 33.8489 95.1534 -92.8734 9.04376 0.356916 49.3244 -3.26577 6.23503 40.8842 14.277 6.41946 178.241 28.0361 99.8318 -43.8099 10.4118 2.20355 78.3648 -6.84895 -3.08403 31.0778 -0.181184 7.25907 -0.55965 9.35052 -89.8507 8.17441 -1.05127 0.356386 -3.49617 -1.03458 0.402314 -26.0346 -1.10979 0.0239249 -6.02198 -1.10978 0.0239128 77.0911 -47.1462 -121.458 26.9906 -10.9202 44.2787 3.49389 2.82563 -104.335 5.01584 0.299332 -3.06247 -105.442 -39.7504 51.2637 3.47858 52.4231 -34.3394 20.2577 -14.9039 -92.3369 5.83399 0.170475 -0.725076 -0.0477991 4.479 0.331322 20.0525 4.53079 0.91755 
27.9646 91.817 30.1011 77.0344 -47.6184 82.6854 -169.504 41.9638 94.5145 -85.3829 9.92814 -0.0573902 53.2984 -1.60248 7.03468 42.2011 15.9074 6.52888 179.373 20.7363 99.9715 -39.2472 12.751 0.867248 77.1178 -7.8432 -3.56901 40.5417 1.07398 8.63926 -0.442931 9.25821 -89.8129 8.35889 -0.801422 0.418621 -3.3119 -0.782226 0.453485 -25.8489 -0.890177 0.158401 -5.83628 -0.890178 0.158388 77.2072 -45.721 -121.956 27.9192 -13.3638 42.9869 3.13281 3.09994 -102.008 3.48832 0.236597 -3.55913 -106.266 -39.9403 50.0955 1.24102 52.0139 -31.4518 19.5351 -14.6682 -92.8574 5.83268 0.267618 0.620103 1.97553 3.611 0.898207 18.8586 3.32867 -0.301711 
34.8324 92.7383 37.916 79.0432 -45.0321 82.5228 -170.581 44.9323 92.3689 -72.915 11.4866 -0.922301 55.2858 -2.19361 6.57184 43.1284 17.5601 9.23293 178.836 11.7603 97.7187 -36.2708 10.5818 0.544107 71.7737 -5.99941 -3.02527 48.8679 2.37762 10.0297 -0.571503 9.32035 -89.5624 8.2361 -0.948215 0.920842 -3.43487 -0.906755 0.961687 -25.9715 -1.18112 0.593281 -5.95883 -1.18112 0.593296 78.0931 -44.8271 -121.025 29.3026 -13.077 42.309 4.14652 3.04068 -101.927 4.41569 0.283043 -3.38252 -105.623 -39.6867 50.949 0.195472 52.0225 -30.8316 18.1061 -14.3932 -92.7599 6.14179 0.198466 -0.493107 2.42867 2.57386 1.00109 17.6224 2.06909 -1.5354 
42.1433 94.2112 45.9177 79.9476 -41.6661 82.1951 -171.588 45.3149 90.3315 -54.4241 10.6562 -1.93212 51.4048 -6.96576 2.32333 41.6501 15.8766 10.4816 177.483 2.2327 95.4699 -29.5503 5.35351 1.1164 61.3671 -2.20493 -1.21782 51.7419 3.01722 11.3226 -0.651788 9.1587 -89.4068 8.56078 -1.03809 1.23838 -3.1104 -0.982575 1.28286 -25.6462 -1.36227 0.869158 -5.63355 -1.36227 0.869154 78.2179 -46.0363 -120.27 29.8218 -12.4421 43.8279 4.63913 2.66874 -101.823 4.70779 0.278758 -3.82962 -104.804 -39.6242 52.1829 -0.160995 53.0518 -31.8506 16.8175 -14.1274 -92.3567 6.10652 0.262435 0.539675 0.844927 1.20898 0.142734 18.2976 0.780405 -2.00251 
50.0454 95.555 53.8938 77.4509 -40.6693 80.5337 -171.981 44.8618 89.4367 -32.3779 11.8832 -3.22901 44.6054 -12.7182 -3.45425 36.3983 9.15941 15.4909 177.376 -4.11823 94.3346 -21.1188 0.243206 0.570357 48.8244 1.74837 1.61442 45.8259 2.02736 10.9214 -0.490413 8.77088 -89.3293 9.33439 -0.676691 1.37866 -2.33714 -0.615381 1.40709 -24.8696 -1.05975 1.11158 -4.85694 -1.05973 1.11159 78.0501 -47.062 -120.055 29.2586 -12.854 45.227 4.92025 2.61503 -102.75 5.37889 0.314293 -3.64675 -105.116 -40.0621 51.9303 -0.705802 52.9616 -31.3231 18.558 -14.0781 -92.0559 3.21076 0.0496581 -1.67927 -0.0170874 0.418354 -0.930213 18.3244 0.114116 -2.25034 
58.1165 96.8532 61.7671 74.192 -41.4225 78.4966 -172.534 43.1323 89.6706 -11.7295 13.7036 -4.75161 40.1982 -15.5142 -7.85086 40.4032 13.1944 2.40542 177.948 -7.37315 93.2063 -19.8134 -2.035 -0.703648 43.6485 3.17075 3.0648 40.9371 1.10764 8.17248 -0.282134 8.39125 -89.2814 10.0907 -0.234825 1.44624 -1.58106 -0.170941 1.45517 -24.1109 -0.658602 1.30885 -4.09822 -0.658588 1.30883 78.2929 -46.4027 -119.987 28.6986 -14.0195 45.5828 5.78271 2.70467 -103.067 5.74616 0.356425 -3.45318 -105.612 -40.4483 51.3709 -0.634074 52.5737 -31.1991 16.5041 -14.1204 -92.709 4.47925 0.241228 1.1678 0.246571 0.502227 -0.469839 16.6874 -0.00339008 -3.20681 
65.97 97.6111 69.0271 71.308 -43.9941 77.2529 -173.838 43.653 91.4615 -3.62351 8.57919 -3.47198 43.1965 -14.8915 -7.58761 40.6656 13.8011 4.78655 179.447 -5.05917 93.3187 -31.546 -2.42962 -3.00374 45.4795 2.45959 2.35895 37.4147 0.621086 7.18931 -0.000702045 8.084 -89.2669 10.7014 0.33642 1.42689 -0.97024 0.398876 1.41071 -23.499 -0.107918 1.46203 -3.48634 -0.107932 1.46203 77.983 -45.7324 -120.768 27.2878 -15.4558 45.6087 6.78845 2.92711 -103.62 6.79075 0.387712 -3.89111 -105.618 -40.8315 51.5637 1.47371 52.3209 -32.6444 18.7115 -14.0887 -92.1394 5.22754 0.0730181 -1.88434 -0.37319 1.11994 -0.894006 15.7341 0.666314 -3.33727 
73.1704 97.582 75.7683 70.4483 -48.9139 78.0614 -173.967 44.2231 94.5669 -5.86287 -1.57404 -2.10073 44.0853 -15.7699 -7.83064 34.4242 6.2836 10.0618 -177.344 -0.91012 94.7193 -48.6153 0.996459 -6.35897 46.1477 1.68136 1.7293 36.6391 0.531192 7.73665 0.449556 7.97556 -89.3049 10.9142 1.21665 1.26739 -0.756782 1.27124 1.2126 -23.2891 0.779559 1.57438 -3.27646 0.779566 1.57439 78.8083 -43.7643 -120.418 28.7627 -16.121 44.5844 4.27637 3.65135 -103.54 6.69379 0.41218 -2.69244 -105.38 -40.6394 51.8283 2.17195 52.4992 -33.757 18.6108 -14.1162 -92.0473 7.50711 0.088661 -2.41078 -2.29836 1.8318 -0.753759 16.6065 1.19277 -4.02546 
79.4285 96.8523 82.2318 73.6325 -52.1977 80.9669 -172.384 40.9139 95.0712 -7.4839 3.90918 -3.78333 38.4485 -16.5438 -8.56561 42.1028 15.2436 3.10905 -175.247 4.32271 95.7197 -67.7497 7.5566 -7.82556 46.8663 0.781202 1.02051 33.4812 0.152918 6.57618 0.607218 8.20355 -89.145 10.4538 1.60171 1.55776 -1.21699 1.66872 1.48574 -23.7488 1.05957 1.96702 -3.73611 1.05959 1.96702 79.2994 -43.5193 -119.759 29.1721 -15.4411 42.4528 5.30175 3.44218 -103.492 7.599 0.445866 -2.88336 -103.66 -39.4758 53.8925 2.65068 52.6897 -35.4355 18.1725 -14.3174 -91.9546 5.4478 0.0940018 -1.68104 -3.13355 2.57681 -2.76886 16.672 2.27172 -3.35448 
85.262 94.8965 88.3423 78.2488 -54.184 84.1525 -170.119 34.992 93.0595 -7.51555 8.85405 -3.97154 35.8209 -15.3222 -10.9919 38.6758 12.3912 14.6037 -174.881 11.135 95.5019 -86.9654 14.4475 -7.22285 46.8816 -0.642895 -0.0871642 30.4306 -0.297498 8.23563 0.674312 8.57122 -88.8829 9.71036 1.84947 2.07035 -1.96078 1.93878 1.98696 -24.4875 1.14196 2.53025 -4.47489 1.14197 2.53024 78.1675 -46.2742 -120.236 27.1109 -13.8906 41.3583 4.5545 3.07051 -103.172 7.14437 0.382853 -3.23813 -103.735 -38.7243 53.3848 1.71616 52.0517 -34.0749 18.7618 -14.3709 -92.1758 2.13637 0.00810121 -1.86494 -5.10649 2.98823 -4.53948 18.3068 2.82268 -3.04687 
91.4864 92.6947 95.1929 67.5794 -58.4341 72.3551 -167.573 40.9259 90.6824 -21.7294 11.3457 -6.76888 47.4342 -9.33333 0.382275 35.2047 7.09193 -5.61838 -170.667 27.1857 92.2289 -102.892 17.643 -6.75498 44.9507 -2.36432 -1.47481 29.6303 -0.411889 8.35334 0.826576 8.07955 -88.3111 10.6808 2.42582 3.12976 -0.991306 2.56115 3.02005 -23.5043 1.37368 3.7134 -3.49166 1.37368 3.7134 77.5766 -47.3805 -120.624 26.4836 -12.9003 41.5637 3.88442 3.07354 -103.295 6.32725 0.36476 -2.82868 -103.978 -38.8896 53.0894 1.04645 51.9497 -32.7966 19.4716 -14.7276 -92.7247 3.68339 0.0655003 -1.39699 -7.03835 4.04623 -4.60124 20.2931 3.82661 -2.70325 
98.3195 90.3384 103.374 34.2835 -52.4839 40.5584 -160.218 57.7617 83.0409 -36.3526 5.07371 -13.3295 63.0391 4.42405 9.89226 30.0782 2.17437 -8.67782 -156.672 56.2213 79.0755 -113.346 17.8833 -5.76586 40.3083 -3.55562 -2.62024 32.1207 -0.0218571 6.60483 0.618443 6.07214 -87.6235 14.6426 2.39761 4.45456 2.96651 2.59114 4.34496 -19.511 0.949973 4.96792 0.501693 0.949969 4.96791 77.3717 -48.3788 -120.474 26.1517 -13.5793 40.9344 4.08192 3.28751 -103.089 5.51137 0.328353 -3.10625 -103.463 -38.9062 53.909 1.14415 51.9211 -33.488 18.6349 -14.4451 -92.256 4.44114 0.0236436 -2.47323 -7.32268 5.67742 -5.44745 21.2992 5.68028 -1.75436 
104.421 87.6882 111.452 10.9997 -31.7104 19.948 -126.616 76.3948 48.6307 -44.5563 -0.135337 -17.7512 69.3126 11.0796 13.0648 39.0312 10.8442 -6.76956 -60.4947 75.0213 -14.3204 -117.478 17.8448 -5.28648 38.1365 -4.3921 -3.47429 34.4275 0.262451 5.752 0.157509 3.22492 -87.128 20.3181 1.85522 5.4261 8.63756 2.0919 5.33954 -13.8071 0.141656 5.73185 6.20553 0.141656 5.73186 78.2951 -46.9229 -119.748 27.6156 -12.7333 40.2112 4.14632 3.06137 -101.93 6.25436 0.344262 -3.14921 -104.295 -39.0879 52.6948 2.25178 51.2597 -33.9809 21.4602 -14.5722 -92.3239 3.54354 0.0882921 -0.886414 -5.41334 6.73212 -3.75131 21.0063 6.24978 -3.56819 
108.844 85.8357 118.334 5.11712 -9.93639 9.93446 -65.0828 74.3069 -16.5435 -43.7058 1.20179 -22.2126 67.9081 12.7662 18.2204 49.1588 20.5748 -7.1861 -20.9351 47.3173 -50.5963 -116.34 18.9573 -5.63994 39.5577 -4.29192 -3.27637 42.2611 1.27003 7.91382 -0.486261 0.84307 -86.4803 25.1004 1.11201 6.99639 13.4114 1.4181 6.94107 -8.97424 -1.03662 7.00789 11.0384 -1.03662 7.00791 78.5898 -46.2877 -119.587 29.2138 -11.4037 40.3611 2.66071 2.53942 -101.462 4.90873 0.285432 -2.8437 -104.779 -39.3332 52.0674 4.9353 51.9612 -35.5366 21.0762 -13.8259 -90.9044 7.41794 0.155498 -1.49799 -3.27473 7.36045 -2.45198 19.2123 6.70775 -4.18042 
114.441 84.9417 124.426 4.59396 2.14214 4.78555 -54.5984 69.324 -30.8131 -43.4257 1.82142 -24.7483 66.8046 10.6076 16.4464 54.3636 26.5432 -4.09011 -14.3049 29.4279 -52.918 -109.492 16.6852 -7.27116 44.8518 -3.15993 -2.1755 41.7693 1.09754 5.87243 -0.763684 -0.556142 -86.1807 27.8941 0.859695 7.74942 16.2006 1.19891 7.7045 -6.1533 -1.50191 7.65153 13.8594 -1.50191 7.65152 78.2811 -47.7383 -119.404 28.4315 -10.3747 41.4001 3.88203 1.76674 -100.466 5.02299 0.215952 -4.57604 -105.854 -39.9145 50.715 2.47923 51.9327 -32.862 18.6372 -13.2765 -90.8201 9.22064 0.230871 -1.17731 -3.88869 8.26057 -1.22422 19.2805 7.64754 -3.19559 
119.89 85.3344 130.634 3.98876 8.48103 -0.201668 -58.9358 66.6127 -27.4067 -40.5492 3.53191 -26.5818 63.1716 3.60895 9.82258 55.209 29.9362 2.80675 -9.11838 21.6714 -50.7718 -95.4938 13.7331 -11.5668 45.6431 -1.35128 -0.692973 43.2937 1.43451 8.15971 -0.653323 -1.46654 -86.0972 29.6938 1.18902 7.85247 18.0001 1.53241 7.79309 -4.34712 -1.21824 7.84802 15.6655 -1.21824 7.84801 78.2424 -47.3366 -119.642 28.1464 -8.9485 42.2297 4.85448 1.68623 -100.685 8.01319 0.165408 -6.33185 -105.791 -40.9931 51.3849 -2.40507 51.3133 -29.3657 20.6656 -13.7338 -92.1533 6.46116 0.123396 -1.59381 -4.0823 9.26087 0.602038 18.4525 8.71303 -1.86829 
